#!OML:ASF I:\Actors\actors\Patient Classification 2\Patient 1\Session 1\actor1.ASF
:FULLY-SPECIFIED
:DEGREES
48
root -0.534987 18.6171 5.56082 -0.384656 -5.64063 0.337827
lowerback 6.59327 1.5915 -3.52821
upperback -2.26294 1.82708 0.314289
thorax -6.19005 1.04388 2.09163
lowerneck -13.0072 -1.72666 -0.954457
upperneck 22.3858 -2.53595 1.36468
head 9.20796 -1.12217 0.330441
rclavicle -1.42038e-014 6.65929e-015
rhumerus -37.9931 14.5001 -93.7795
rradius 28.5182
rwrist -3.84978
rhand -13.9331 -38.4253
rfingers 7.12502
rthumb 12.1936 -68.0499
lclavicle -1.42038e-014 6.65929e-015
lhumerus -41.62 -4.18058 91.2168
lradius 36.7879
lwrist -2.28797
lhand -6.03321 -23.0502
lfingers 7.12502
lthumb 19.8004 5.96126
rfemur 6.85279 10.4598 13.0279
rtibia -4.77083e-015
rfoot -17.3976 -14.1558
rtoes -8.87995
lfemur -2.05647 -3.03972 -15.3166
ltibia 21.9296
lfoot -23.028 14.164
ltoes -54.8386
49
root -0.536348 18.6179 5.56255 -0.379256 -5.64678 0.313869
lowerback 6.5521 1.59336 -3.53354
upperback -2.25439 1.83185 0.331554
thorax -6.15854 1.04626 2.11322
lowerneck -12.9915 -1.7351 -0.950556
upperneck 22.4159 -2.54122 1.33078
head 9.21499 -1.12795 0.317633
rclavicle 2.30186e-014 -6.65929e-015
rhumerus -38.014 14.4753 -93.7619
rradius 28.5432
rwrist -3.80662
rhand -13.9218 -38.4086
rfingers 7.12502
rthumb 12.2045 -68.0326
lclavicle 2.30186e-014 -6.65929e-015
lhumerus -41.6621 -4.26902 91.2712
lradius 36.8341
lwrist -2.15379
lhand -6.08602 -23.0004
lfingers 7.12502
lthumb 19.7497 6.01631
rfemur 6.85198 10.4649 13.0601
rtibia 1.11319e-014
rfoot -17.3819 -14.1595
rtoes -8.99731
lfemur -2.05422 -3.08023 -15.2893
ltibia 21.9297
lfoot -23.062 14.177
ltoes -54.7985
50
root -0.536664 18.6188 5.56428 -0.358735 -5.67242 0.29392
lowerback 6.50343 1.602 -3.50892
upperback -2.25179 1.84742 0.329494
thorax -6.12797 1.05248 2.09658
lowerneck -12.9355 -1.74192 -0.953998
upperneck 22.3905 -2.5544 1.3497
head 9.19618 -1.13283 0.323701
rclavicle -1.6114e-014 3.27995e-015
rhumerus -38.0559 14.5442 -93.8309
rradius 28.4813
rwrist -4.12587
rhand -14.0054 -38.522
rfingers 7.12502
rthumb 12.1239 -68.1507
lclavicle -1.6114e-014 3.27995e-015
lhumerus -41.6722 -4.31729 91.2846
lradius 36.8341
lwrist -2.08587
lhand -6.1524 -23.0249
lfingers 7.12502
lthumb 19.6858 5.99835
rfemur 6.83061 10.4879 13.0779
rtibia 4.77083e-015
rfoot -17.3876 -14.1439
rtoes -8.93214
lfemur -2.06472 -3.10862 -15.2724
ltibia 21.9277
lfoot -23.0753 14.227
ltoes -54.7365
51
root -0.537056 18.6183 5.56513 -0.350773 -5.68934 0.286638
lowerback 6.49854 1.61753 -3.46859
upperback -2.25367 1.87023 0.300427
thorax -6.12609 1.06154 2.04088
lowerneck -12.8983 -1.73183 -0.926261
upperneck 22.3533 -2.55446 1.38477
head 9.17643 -1.12711 0.331455
rclavicle -5.20257e-015 1.09332e-014
rhumerus -38.0943 14.618 -93.9394
rradius 28.4201
rwrist -4.49288
rhand -14.0827 -38.6716
rfingers 7.12502
rthumb 12.0494 -68.3047
lclavicle -5.20257e-015 1.09332e-014
lhumerus -41.648 -4.32068 91.2316
lradius 36.7933
lwrist -2.13551
lhand -6.12708 -23.1044
lfingers 7.12502
lthumb 19.7102 5.91632
rfemur 6.82409 10.5037 13.0846
rtibia 6.36111e-015
rfoot -17.4256 -14.131
rtoes -8.79406
lfemur -2.06459 -3.06756 -15.2608
ltibia 21.9229
lfoot -23.0489 14.229
ltoes -54.7519
52
root -0.537805 18.6179 5.56583 -0.360262 -5.68232 0.292235
lowerback 6.51743 1.63072 -3.46343
upperback -2.25199 1.88674 0.285576
thorax -6.13547 1.06924 2.02001
lowerneck -12.8672 -1.73611 -0.928451
upperneck 22.3155 -2.56828 1.4224
head 9.15826 -1.13003 0.343436
rclavicle 3.3343e-014 7.35503e-015
rhumerus -38.0928 14.559 -93.9181
rradius 28.5484
rwrist -4.2603
rhand -14.0538 -38.6575
rfingers 7.12502
rthumb 12.0772 -68.289
lclavicle 3.3343e-014 7.35503e-015
lhumerus -41.6261 -4.31308 91.2081
lradius 36.7607
lwrist -2.16414
lhand -6.08261 -23.1167
lfingers 7.12502
lthumb 19.7529 5.89959
rfemur 6.83945 10.4975 13.0857
rtibia -1.27222e-014
rfoot -17.4224 -14.1597
rtoes -8.91593
lfemur -2.04732 -3.01309 -15.2568
ltibia 21.9136
lfoot -23.0245 14.1684
ltoes -54.7826
53
root -0.538327 18.6176 5.5671 -0.362879 -5.65982 0.31752
lowerback 6.48157 1.62988 -3.51076
upperback -2.23501 1.88348 0.292855
thorax -6.09883 1.06887 2.05574
lowerneck -12.8579 -1.74505 -0.955799
upperneck 22.3054 -2.57801 1.43778
head 9.15375 -1.13532 0.352255
rclavicle 8.55706e-015 -4.27387e-015
rhumerus -38.0523 14.5377 -93.8642
rradius 28.6281
rwrist -4.00073
rhand -14.0475 -38.5948
rfingers 7.12502
rthumb 12.0833 -68.2259
lclavicle 8.55706e-015 -4.27387e-015
lhumerus -41.6011 -4.25735 91.2143
lradius 36.7486
lwrist -2.13167
lhand -6.06486 -23.0388
lfingers 7.12502
lthumb 19.77 5.97574
rfemur 6.84736 10.4753 13.0624
rtibia -1.74931e-014
rfoot -17.3982 -14.1861
rtoes -9.0708
lfemur -2.04219 -3.00685 -15.2793
ltibia 21.9136
lfoot -23.0354 14.0959
ltoes -54.7532
54
root -0.538361 18.6168 5.56779 -0.349437 -5.64505 0.3292
lowerback 6.42926 1.62339 -3.52604
upperback -2.22257 1.87555 0.290443
thorax -6.05572 1.06473 2.06427
lowerneck -12.9163 -1.65102 -0.987435
upperneck 22.4044 -2.43548 1.418
head 9.19722 -1.07241 0.366808
rclavicle -1.07592e-014 1.0635e-014
rhumerus -38.023 14.5488 -93.8682
rradius 28.608
rwrist -3.99341
rhand -14.0844 -38.5867
rfingers 7.12502
rthumb 12.0478 -68.2199
lclavicle -1.07592e-014 1.0635e-014
lhumerus -41.5973 -4.21139 91.1919
lradius 36.7666
lwrist -2.12541
lhand -6.06955 -23.0495
lfingers 7.12502
lthumb 19.7655 5.96554
rfemur 6.8356 10.459 13.0468
rtibia 2.22639e-014
rfoot -17.4126 -14.1764
rtoes -9.06767
lfemur -2.06343 -3.02945 -15.2901
ltibia 21.924
lfoot -23.0714 14.0566
ltoes -54.6856
55
root -0.538613 18.6171 5.56747 -0.332267 -5.64569 0.305656
lowerback 6.41116 1.62115 -3.49971
upperback -2.2226 1.87565 0.291612
thorax -6.04445 1.06365 2.05115
lowerneck -13.1119 -1.49774 -1.28424
upperneck 22.6517 -2.19634 1.59282
head 9.32233 -0.964154 0.503203
rclavicle -1.29427e-014 1.91827e-014
rhumerus -38.0321 14.5602 -93.8866
rradius 28.6341
rwrist -4.00402
rhand -14.084 -38.6186
rfingers 7.12502
rthumb 12.0481 -68.2518
lclavicle -1.29427e-014 1.91827e-014
lhumerus -41.5937 -4.17398 91.1549
lradius 36.7652
lwrist -2.1867
lhand -6.04468 -23.0678
lfingers 7.12502
lthumb 19.7894 5.94475
rfemur 6.81752 10.4576 13.0705
rtibia 1.11319e-014
rfoot -17.431 -14.1674
rtoes -8.9511
lfemur -2.09172 -3.01963 -15.2653
ltibia 21.9342
lfoot -23.0377 14.1063
ltoes -54.7936
56
root -0.539431 18.6174 5.56799 -0.33487 -5.65038 0.279551
lowerback 6.4036 1.62844 -3.48984
upperback -2.21595 1.8872 0.301204
thorax -6.03383 1.06893 2.05455
lowerneck -12.8104 -1.46772 -0.65536
upperneck 22.3831 -2.17972 1.10667
head 9.1587 -0.959084 0.235365
rclavicle 1.23184e-014 5.46658e-015
rhumerus -38.0746 14.6681 -93.9542
rradius 28.5661
rwrist -4.37013
rhand -14.0918 -38.7743
rfingers 7.12502
rthumb 12.0406 -68.408
lclavicle 1.23184e-014 5.46658e-015
lhumerus -41.5907 -4.20337 91.1667
lradius 36.7657
lwrist -2.16147
lhand -6.02631 -23.0086
lfingers 7.12502
lthumb 19.8071 6.00213
rfemur 6.82336 10.4624 13.1026
rtibia 1.59028e-015
rfoot -17.4238 -14.1699
rtoes -8.9024
lfemur -2.09434 -3.01546 -15.24
ltibia 21.9433
lfoot -23.0164 14.1452
ltoes -54.885
57
root -0.53945 18.6166 5.56975 -0.355965 -5.65681 0.270997
lowerback 6.40317 1.63644 -3.48926
upperback -2.21444 1.89855 0.311022
thorax -6.03306 1.07469 2.06315
lowerneck -12.7374 -1.61436 -0.759505
upperneck 22.2567 -2.40079 1.27783
head 9.10718 -1.05403 0.28649
rclavicle 2.35839e-014 -8.74653e-015
rhumerus -38.128 14.7856 -94.0088
rradius 28.48
rwrist -4.73816
rhand -14.0831 -38.8789
rfingers 7.12502
rthumb 12.049 -68.512
lclavicle 2.35839e-014 -8.74653e-015
lhumerus -41.6261 -4.24063 91.2025
lradius 36.7896
lwrist -2.08795
lhand -6.05717 -23.0079
lfingers 7.12502
lthumb 19.7774 6.00596
rfemur 6.85255 10.4713 13.1165
rtibia 2.22639e-014
rfoot -17.4317 -14.159
rtoes -8.97412
lfemur -2.07005 -3.01504 -15.229
ltibia 21.9527
lfoot -23.0655 14.0905
ltoes -54.8113
58
root -0.539081 18.6159 5.57092 -0.371858 -5.65661 0.273287
lowerback 6.41516 1.64007 -3.48072
upperback -2.22235 1.90313 0.303481
thorax -6.04797 1.07678 2.0495
lowerneck -12.7482 -1.68972 -0.875261
upperneck 22.2483 -2.50991 1.40333
head 9.11095 -1.10134 0.336007
rclavicle 6.74004e-016 1.09332e-014
rhumerus -38.1216 14.7266 -93.9692
rradius 28.524
rwrist -4.49076
rhand -13.3145 -39.2377
rfingers 7.12502
rthumb 12.79 -68.8259
lclavicle 6.74004e-016 1.09332e-014
lhumerus -41.6576 -4.22694 91.1745
lradius 36.8412
lwrist -2.00957
lhand -5.88701 -22.96
lfingers 7.12502
lthumb 19.941 6.03687
rfemur 6.87348 10.4729 13.1169
rtibia 1.11319e-014
rfoot -17.443 -14.1611
rtoes -9.03132
lfemur -2.04673 -3.02922 -15.231
ltibia 21.9576
lfoot -23.1045 14.0529
ltoes -54.7498
